<svg xmlns="http://www.w3.org/2000/svg" viewBox="0 0 277.69 242.46"><defs><style>.cls-1{fill:#02457c;}.cls-2{fill:#fff;}</style></defs><title>Asset 2</title><g id="Layer_2" data-name="Layer 2"><g id="Layer_1-2" data-name="Layer 1"><path class="cls-1" d="M119.31,23.32,145.1,0l6.56,6.27q24.43,23.46,48.86,46.94a1.8,1.8,0,0,0,2.67.28c5-3,10-5.94,14.95-8.93a1.28,1.28,0,0,1,1.87.2q28.34,26.79,56.72,53.52a2.76,2.76,0,0,1,1,2.28c-.39,17-.5,34-1.21,51-.47,11-6,19.54-15.48,25.15-12.22,7.2-24.58,14.17-36.88,21.24l-51.64,29.65c-6.07,3.49-12.09,7.07-18.22,10.45-10.64,5.85-21.45,6-32,0-25.1-14.28-50.1-28.74-75.14-43.13-10.46-6-21-12-31.39-18C6.48,171.4,1.32,163.23.08,152.59a12.8,12.8,0,0,1,0-1.52c0-14.24,0-28.49,0-42.74a4.77,4.77,0,0,1,1.34-3.5c9.91-11,19.74-22.17,29.6-33.26l22.22-25a10.53,10.53,0,0,0,.67-1c4.74,3.34,9.26,6.5,13.88,9.75L110.25,16Zm28.17,140.22,1.28-.41A19.59,19.59,0,0,0,162,140.26a19.89,19.89,0,0,0-39.2,1.84,19.43,19.43,0,0,0,13.61,21,1.25,1.25,0,0,1,1,1.48c0,1.79,0,3.59,0,5.39,0,1.12.41,1.64,1.51,1.64h7.05c1.06,0,1.58-.47,1.55-1.61C147.43,167.9,147.48,165.78,147.48,163.54ZM95,140.92l.3,0,2,3.26,10.92,17.93c.46.76.91,1.46,2,1.44,2.48-.05,5,0,7.46,0,1.07,0,1.58-.39,1.58-1.56q0-17.55,0-35.12c0-1.16-.48-1.69-1.65-1.68-2,0-4,0-6.08,0s-2.21.21-2.22,2.21V146a2.27,2.27,0,0,1-.93-.88c-3.82-6.08-7.67-12.15-11.45-18.26a3,3,0,0,0-3-1.69c-2.11.11-4.24,0-6.36,0s-2.38.13-2.38,2.32v12.17q0,10.92,0,21.84c0,1.76.24,2,2,2,1.93,0,3.87,0,5.8,0s2-.12,2-2.05V140.92ZM62,164a19.74,19.74,0,1,0-19.77-20A19.7,19.7,0,0,0,62,164Zm196.88-15.55.92-.66c4.65-3.34,6.54-8.68,4.9-13.84a12.76,12.76,0,0,0-12.12-8.83c-5.43,0-10.87,0-16.31,0-1.31,0-1.81.46-1.8,1.77q0,17.49,0,35c0,1.1.4,1.61,1.53,1.6q3.53,0,7.05,0c1.13,0,1.56-.48,1.55-1.58,0-2.81,0-5.62,0-8.44s0-2.66,2.64-2.76a2.1,2.1,0,0,1,2.22,1.37c1.76,3.44,3.64,6.82,5.42,10.25a1.84,1.84,0,0,0,1.83,1.16c2.53,0,5.07,0,7.6,0,2.13,0,2.35-.44,1.31-2.37C263.4,156.94,261.18,152.76,258.91,148.49Zm-83.26-10.3h-.08c0-3.64,0-7.28,0-10.92,0-1.79-.34-2.12-2.09-2.12-2,0-4.06,0-6.09,0-1.75,0-2,.24-2,2,0,5,0,10.05,0,15.07a81.28,81.28,0,0,0,.29,9.24c.67,5.49,3.54,9.49,8.87,11.47a23.48,23.48,0,0,0,9.95,1.06c7.72-.53,13.17-5.54,13.55-13.23.4-8,.21-16,.26-24,0-1-.55-1.58-1.66-1.56-2,0-4,0-6.08,0-2.32,0-2.47.15-2.47,2.53,0,7,.06,14,0,21-.06,4.75-4,7.53-8.44,6.11a5.58,5.58,0,0,1-3.95-5.28C175.57,145.75,175.65,142,175.65,138.19Zm37.14-4.1h16c1.55,0,1.9-.34,1.91-1.85,0-1.75,0-3.5,0-5.25,0-1.55-.29-1.82-1.89-1.82-8.16,0-16.31,0-24.47,0-1.35,0-1.8.53-1.79,1.8q0,17.41,0,34.84c0,1.22.45,1.74,1.71,1.74q12.65,0,25.3,0c1.28,0,1.72-.62,1.71-1.79,0-1.7,0-3.41,0-5.11,0-1.86-.2-2.08-2-2.08-5,0-10,0-14.93,0-.49,0-1,0-1.49-.06v-6.35h1.69c3.46,0,6.91,0,10.37,0,1.66,0,1.94-.33,2-1.94,0-1.38,0-2.77,0-4.15.05-1.17-.42-1.68-1.62-1.65-2.4,0-4.79,0-7.19,0h-5.25ZM145.22,23.71v1.82c0,4.19,0,8.39-.14,12.58a1.65,1.65,0,0,0,1.2,1.83Q161,46.18,175.61,52.48c.48.2,1,.37,1.71.65-1.2-3.32-2.29-6.34-3.48-9.65l16.33,6.3.19-.33L145.44,7.38c0,3.8,0,7.52,0,11.23a3.71,3.71,0,0,0,1.31,3.13c1.64,1.47,3.14,3.1,4.69,4.67l-.16.18ZM31.74,164.05a19.2,19.2,0,0,0,10.4-3.17c1.25-.78,1.33-1.26.5-2.46-1.2-1.75-2.46-3.45-3.62-5.22-.68-1-1.32-1.15-2.39-.48a9.69,9.69,0,0,1-13-1.8,10.8,10.8,0,0,1,.41-13.73,9.61,9.61,0,0,1,12.48-1.39c1,.67,1.68.59,2.37-.45,1.14-1.73,2.39-3.38,3.57-5.09.89-1.27.8-1.75-.49-2.56a19.3,19.3,0,0,0-14-2.84c-10.53,1.8-17.37,10.87-16.45,21.75C12.36,156.28,21.1,164,31.74,164.05ZM133.14,37.81a6.26,6.26,0,0,0-.38.84c-1.12,4.07-2.21,8.16-3.35,12.23a1.26,1.26,0,0,0,.67,1.58c3.92,2.68,7.8,5.4,11.71,8.08a4,4,0,0,0,1.39.55q8.49,1.81,17,3.57c2.73.57,5.46,1.12,8.19,1.68l.1-.28-20.15-9.74.1-.35h8.75Zm-25,48.94.11-.29L54.07,51.29l-.28.19c2,6.83,4.05,13.67,6.18,20.87l4.08-6.46ZM8.6,103.3a3.67,3.67,0,0,0,.71,0c5.63-2.14,11.26-4.27,16.87-6.45a2.57,2.57,0,0,0,1.17-1.07Q35,82.58,42.61,69.36c.18-.32.31-.66.47-1l-.22-.13ZM200.85,83.16l34.9,13.52a24.47,24.47,0,0,0-3.46-3Q222,85.85,211.73,78.05a1.89,1.89,0,0,0-1.51-.37C207.17,79.38,204.18,81.19,200.85,83.16Zm44.3-5.22.19-.29L217.5,50.2a88.68,88.68,0,0,0-.65,10c0,.38.55.9,1,1.15q12.74,7.78,25.5,15.52ZM124.41,88.08l-.09.2c.2.15.39.33.6.46q9.27,5.52,18.53,11a5,5,0,0,0,1.41.55c3.09.73,6.18,1.44,9.27,2.16l7.59,1.75a28.38,28.38,0,0,0-3.47-4.53,5.38,5.38,0,0,0-2.1-1.41q-12.19-4-24.43-7.88C129.29,89.61,126.85,88.85,124.41,88.08ZM110.68,23.73,98.38,43.94l.28.19,17.7-16.55Z"/><path class="cls-2" d="M147.48,163.54c0,2.24,0,4.36,0,6.48,0,1.14-.49,1.61-1.55,1.61h-7.05c-1.1,0-1.55-.52-1.51-1.64.06-1.8,0-3.6,0-5.39a1.25,1.25,0,0,0-1-1.48,19.43,19.43,0,0,1-13.61-21,19.89,19.89,0,0,1,39.2-1.84,19.59,19.59,0,0,1-13.23,22.87Zm-14.66-19.23c0,5.79,4.17,10.15,9.76,10.17a9.77,9.77,0,0,0,9.72-10.08c0-5.84-4.24-10.28-9.84-10.27C137.05,134.15,132.83,138.6,132.82,144.31Z"/><path class="cls-2" d="M95,140.92v20.52c0,1.93-.11,2-2,2.05s-3.87,0-5.8,0c-1.76,0-2-.25-2-2q0-10.92,0-21.84V127.47c0-2.19.14-2.32,2.38-2.32s4.25.08,6.36,0a3,3,0,0,1,3,1.69c3.78,6.11,7.63,12.18,11.45,18.26a2.27,2.27,0,0,0,.93.88V127.36c0-2,.23-2.21,2.22-2.21s4.06,0,6.08,0c1.17,0,1.66.52,1.65,1.68q0,17.56,0,35.12c0,1.17-.51,1.56-1.58,1.56-2.49,0-5-.05-7.46,0-1.09,0-1.54-.68-2-1.44L97.3,144.13l-2-3.26Z"/><path class="cls-2" d="M62,164a19.74,19.74,0,1,1,.59-39.47A19.74,19.74,0,0,1,62,164Zm9.82-19.67c0-5.84-4.2-10.25-9.71-10.24s-9.75,4.44-9.76,10.21a9.74,9.74,0,1,0,19.47,0Z"/><path class="cls-2" d="M258.91,148.49c2.27,4.27,4.49,8.45,6.73,12.62,1,1.93.82,2.36-1.31,2.37-2.53,0-5.07,0-7.6,0a1.84,1.84,0,0,1-1.83-1.16c-1.78-3.43-3.66-6.81-5.42-10.25a2.1,2.1,0,0,0-2.22-1.37c-2.66.1-2.65,0-2.64,2.76s0,5.63,0,8.44c0,1.1-.42,1.6-1.55,1.58q-3.53,0-7.05,0c-1.13,0-1.53-.5-1.53-1.6q0-17.49,0-35c0-1.31.49-1.78,1.8-1.77,5.44.05,10.88,0,16.31,0A12.76,12.76,0,0,1,264.73,134c1.64,5.16-.25,10.5-4.9,13.84Zm-14.29-15.17c0,2.79,0,5.54,0,8.28,0,.29.59.79.92.8,1.7.06,3.4,0,5.1-.05a4.16,4.16,0,0,0,4.06-4.06c.14-2.39-1.3-4.66-3.49-4.92A60.65,60.65,0,0,0,244.62,133.32Z"/><path class="cls-2" d="M175.65,138.19c0,3.78-.08,7.56,0,11.33a5.58,5.58,0,0,0,3.95,5.28c4.43,1.42,8.38-1.36,8.44-6.11.1-7,0-14,0-21,0-2.38.15-2.53,2.47-2.53,2,0,4.06,0,6.08,0,1.11,0,1.66.51,1.66,1.56,0,8,.14,16-.26,24-.38,7.69-5.83,12.7-13.55,13.23a23.48,23.48,0,0,1-9.95-1.06c-5.33-2-8.2-6-8.87-11.47a81.28,81.28,0,0,1-.29-9.24c0-5,0-10,0-15.07,0-1.74.25-2,2-2,2,0,4.06,0,6.09,0,1.75,0,2.08.33,2.09,2.12,0,3.64,0,7.28,0,10.92Z"/><path class="cls-2" d="M212.79,134.09v6.28H218c2.4,0,4.79,0,7.19,0,1.2,0,1.67.48,1.62,1.65,0,1.38,0,2.77,0,4.15,0,1.61-.3,1.93-2,1.94-3.46,0-6.91,0-10.37,0h-1.69v6.35c.51,0,1,.06,1.49.06,5,0,9.95,0,14.93,0,1.85,0,2,.22,2,2.08,0,1.7,0,3.41,0,5.11,0,1.17-.43,1.79-1.71,1.79q-12.65,0-25.3,0c-1.26,0-1.71-.52-1.71-1.74q0-17.43,0-34.84c0-1.27.44-1.8,1.79-1.8,8.16.05,16.31,0,24.47,0,1.6,0,1.88.27,1.89,1.82,0,1.75,0,3.5,0,5.25,0,1.51-.36,1.85-1.91,1.85h-16Z"/><path class="cls-2" d="M145.22,23.71l6,2.88.16-.18c-1.55-1.57-3-3.2-4.69-4.67a3.71,3.71,0,0,1-1.31-3.13c.07-3.71,0-7.43,0-11.23l44.92,42.07-.19.33-16.33-6.3c1.19,3.31,2.28,6.33,3.48,9.65-.74-.28-1.23-.45-1.71-.65Q161,46.21,146.28,39.94a1.65,1.65,0,0,1-1.2-1.83c.1-4.19.1-8.39.14-12.58Z"/><path class="cls-2" d="M31.74,164.05c-10.64-.05-19.38-7.77-20.19-17.44-.92-10.88,5.92-20,16.45-21.75a19.3,19.3,0,0,1,14,2.84c1.29.81,1.38,1.29.49,2.56-1.18,1.71-2.43,3.36-3.57,5.09-.69,1-1.32,1.12-2.37.45a9.61,9.61,0,0,0-12.48,1.39,10.8,10.8,0,0,0-.41,13.73,9.69,9.69,0,0,0,13,1.8c1.07-.67,1.71-.55,2.39.48,1.16,1.77,2.42,3.47,3.62,5.22.83,1.2.75,1.68-.5,2.46A19.2,19.2,0,0,1,31.74,164.05Z"/><path class="cls-2" d="M133.14,37.81l24,18.16h-8.75l-.1.35,20.15,9.74-.1.28c-2.73-.56-5.46-1.11-8.19-1.68q-8.51-1.77-17-3.57a4,4,0,0,1-1.39-.55c-3.91-2.68-7.79-5.4-11.71-8.08a1.26,1.26,0,0,1-.67-1.58c1.14-4.07,2.23-8.16,3.35-12.23A6.26,6.26,0,0,1,133.14,37.81Z"/><path class="cls-2" d="M108.18,86.75,64.05,65.89,60,72.35c-2.13-7.2-4.15-14-6.18-20.87l.28-.19,54.22,35.17Z"/><path class="cls-2" d="M8.6,103.3,42.86,68.23l.22.13c-.16.34-.29.68-.47,1Q35,82.58,27.35,95.78a2.57,2.57,0,0,1-1.17,1.07C20.57,99,14.94,101.16,9.31,103.3A3.67,3.67,0,0,1,8.6,103.3Z"/><path class="cls-2" d="M200.85,83.16c3.33-2,6.32-3.78,9.37-5.48a1.89,1.89,0,0,1,1.51.37Q222,85.82,232.29,93.66a24.47,24.47,0,0,1,3.46,3Z"/><path class="cls-2" d="M245.15,77.94l-1.84-1.09q-12.76-7.75-25.5-15.52c-.41-.25-1-.77-1-1.15a88.68,88.68,0,0,1,.65-10l27.84,27.45Z"/><path class="cls-2" d="M124.41,88.08c2.44.77,4.88,1.53,7.31,2.31q12.22,3.92,24.43,7.88a5.38,5.38,0,0,1,2.1,1.41,28.38,28.38,0,0,1,3.47,4.53l-7.59-1.75c-3.09-.72-6.18-1.43-9.27-2.16a5,5,0,0,1-1.41-.55q-9.27-5.49-18.53-11c-.21-.13-.4-.31-.6-.46Z"/><path class="cls-2" d="M110.68,23.73l5.68,3.85L98.66,44.13l-.28-.19Z"/><path class="cls-1" d="M132.82,144.31c0-5.71,4.23-10.16,9.64-10.18,5.6,0,9.86,4.43,9.84,10.27a9.77,9.77,0,0,1-9.72,10.08C137,154.46,132.8,150.1,132.82,144.31Z"/><path class="cls-1" d="M71.85,144.37a9.74,9.74,0,1,1-19.47,0c0-5.77,4.24-10.2,9.76-10.21S71.83,138.53,71.85,144.37Z"/><path class="cls-1" d="M244.62,133.32a60.65,60.65,0,0,1,6.63.05c2.19.26,3.63,2.53,3.49,4.92a4.16,4.16,0,0,1-4.06,4.06c-1.7.1-3.4.11-5.1.05-.33,0-.91-.51-.92-.8C244.59,138.86,244.62,136.11,244.62,133.32Z"/></g></g></svg>