<svg xmlns="http://www.w3.org/2000/svg" viewBox="0 0 208.07 48.05"><defs><style>.cls-1{fill:#fff;}</style></defs><title>Asset 1</title><g id="Layer_2" data-name="Layer 2"><g id="Layer_1-2" data-name="Layer 1"><path class="cls-1" d="M129.29,31.58c-3.75,4.35-7.32,4-10.36-1.18-1.36,2.13-2.57,4.53-5.6,4.05-3.19-.51-3-3.47-3.9-6-.73,1.16-1.24,2.09-1.86,2.94a8.08,8.08,0,0,1-9.18,2.9,2.91,2.91,0,0,1-1.63-1.19,2.41,2.41,0,0,1,.26-2,1.78,1.78,0,0,1,1.72,0c1.09,1.09,2.39,1.4,3.2.22a4.1,4.1,0,0,0,.38-3.5c-.68-1.39-2.1-2.42-3.32-3.71-1.68,2.59-3.12,5.05-4.81,7.34-1.16,1.57-2.4,3.78-4.8,2.88-2.17-.81-1.94-3.14-2-5.09,0-3.09,0-6.19-.28-9.35-3.92,4-5.28,9.07-5.94,14.36-2.49.62-3.39.2-3.44-1.91-.1-5.28,0-10.57,0-15.89,2.55-.34,3.2.92,3.1,3a20.09,20.09,0,0,0,.41,5.32c.86-1.64,1.7-3.29,2.59-4.91.49-.88.89-2,1.67-2.47,1-.6,2.61-1.14,3.57-.75a4.12,4.12,0,0,1,1.92,3c.25,3,.06,6.08.1,9.12a18.49,18.49,0,0,0,.33,2.42l.67.24c1.7-2.64,3.47-5.23,5-7.94.29-.5-.17-1.47-.35-2.2-.68-2.66.89-5.05,3.52-5.17a2.42,2.42,0,0,1,1.85.58,2,2,0,0,1-.15,1.89c-2,2.23-1.14,3.47,1.09,4.85,2.4,1.48,3.13,3.08,3.68,6.24,4.22-4.27,2.51-9.38,2.88-14.36H105c-.23-4,3.06-1.89,4.72-3.07,0-1.14,0-2.45,0-3.76,0-1.15.07-2.56,1.56-2.21a4.33,4.33,0,0,1,2.68,2.25c.46,1.21.11,2.74.11,4.45h5.64c-.88,3.8-3.9,1.68-5.75,2.73,0,4.67-.05,9.46.06,14.24a2.18,2.18,0,0,0,1.25,1.69,2.28,2.28,0,0,0,1.83-1.09A26.37,26.37,0,0,0,118.64,26c.68-2.53.84-5.29,2-7.58,1.78-3.64,4.77-3.89,7.36-1.48,1.24-.1,2.27-.5,2.9-.16A2.93,2.93,0,0,1,132.14,19c.14,3.5,0,7,.1,10.52,0,1.41-.11,3.21,2.09,3.22,1.54,0,2.3-1.56,2-3.76A14.54,14.54,0,0,1,138,19c2-3.38,4.26-3.82,7.09-1.82,1.39-.2,2.63-.77,3.39-.38s1.11,1.73,1.15,2.67c.14,3.17.05,6.35.05,9.64a10.12,10.12,0,0,0,3.63-10.29c-.24-.95.54-2.17.85-3.26,1,.46,2.4.67,3,1.46.81,1.11,1.33,1.31,2.62.85,2.85-1,3.68-.23,3.42,2.76s-.42,6-.46,9.07c0,1.34.42,2.94,2.14,2.75s2.2-1.63,1.94-3.35a15.68,15.68,0,0,1,1.36-9.79c1.56-3,3.9-3.76,7-2.35a1.89,1.89,0,0,0,1.3.08c2.1-.81,3.16-.26,3.24,2,.11,2.8,0,5.61.07,8.42a15.92,15.92,0,0,0,.59,3.89,2.06,2.06,0,0,0,1.38,1.32,2,2,0,0,0,1.6-1,17.69,17.69,0,0,0,1.25-4.89c.19-3.41.06-6.83.06-10.23,2.93-.18,2.93-.18,3.82,6.52a30.77,30.77,0,0,1,1.93-4.69c.54-.86,1.67-2,2.43-1.88A3.31,3.31,0,0,1,195,18.67c.44,2.09.39,4.29.91,6.56.78-2.13,1.56-4.27,2.33-6.4.47-1.28.92-2.61,2.67-2.39s2.3,1.67,2.34,3.25c.06,2.8.05,5.61.07,8.41a1.8,1.8,0,0,0,.06.7c.54,1.21,1.1,2.4,1.66,3.6.83-1,1.68-2,2.48-3a3.14,3.14,0,0,0,.29-1c.81,2.48-.41,5.38-2.4,6-2.32.71-4.35-.51-4.79-3.43-.48-3.13-.44-6.34-.63-9.52l-.59-.23c-.83,2.79-1.62,5.6-2.52,8.37-.4,1.19-1,3.28-1.58,3.28-2,0-2.16-2-2.35-3.46-.26-2.08-.21-4.2-.3-6.3a7.36,7.36,0,0,0-.42-2.49c-3.41,3.82-3.31,8.53-3.32,13.4-1.65-.41-3.79,1.46-4.17-1.74-3.39,3.34-5.09,3-7.17-1-1.6,1-3.12,2.64-4.87,3s-3.52-.73-5.3-1.18l.16-.68c-.15,0-.34.06-.43.16-1.24,1.38-2.77,2.88-4.57,1.85a6.59,6.59,0,0,1-3-4c-.45-2.46,0-5.07.09-7.61a14.72,14.72,0,0,1,.43-2.22c-2.54-.71-3.72.12-4.73,2.47-1.29,3-3.34,5.72-5,8.6a5.24,5.24,0,0,0-.71,2.3c-.12,2.49,0,5-.17,7.47-.37,4.47-3.33,6.95-7.47,6.5-3.1-.33-4.52-2.34-3.26-5.22a25,25,0,0,1,3.56-5.13,55.63,55.63,0,0,0,4-5.07c-3.26,2.23-6.29,3.37-9.12-.3C133.31,35.65,131.77,35.53,129.29,31.58ZM129,24.93a25.67,25.67,0,0,0-1.13-4.44A3.05,3.05,0,0,0,125.74,19a2.62,2.62,0,0,0-1.89,1.33,11.32,11.32,0,0,0-.42,10.32c.91,2,2.43,2.18,3.44.3A37.53,37.53,0,0,0,129,24.93Zm17.24-.25a21.75,21.75,0,0,0-1-4.08,3,3,0,0,0-2-1.58,2.84,2.84,0,0,0-2.07,1.41,11.34,11.34,0,0,0-.6,9.68c.32.82,1.27,1.92,2,1.93a3,3,0,0,0,2.14-1.76A48.93,48.93,0,0,0,146.2,24.68Zm30.54.38a26.79,26.79,0,0,0-1.37-4.93,1.94,1.94,0,0,0-3.66-.05,11.34,11.34,0,0,0-.45,10.73c.87,1.8,2.39,1.94,3.34.18A39.31,39.31,0,0,0,176.74,25.06ZM147,36.91l-1.07-.45c-1.59,2-3.29,4-4.7,6.18a2.74,2.74,0,0,0,.2,2.63,3.29,3.29,0,0,0,2.75.15,2.94,2.94,0,0,0,1.57-1.85C146.26,41.38,146.56,39.13,147,36.91Z"/><path class="cls-1" d="M22,43.87c-3.12,0-6.23.05-9.34,0A12.59,12.59,0,0,1,.06,31.24C0,25.09,0,18.94.05,12.79A12.56,12.56,0,0,1,12.42.13C19,0,25.5,0,32,.14A12.52,12.52,0,0,1,44.32,12.86q.13,9.11,0,18.22A12.63,12.63,0,0,1,31.38,43.87C28.26,43.9,25.15,43.87,22,43.87ZM4.14,21.81h0c0,3-.09,5.92,0,8.88.21,5.91,3.25,9.16,9.13,9.35s12,.21,18,0c5.51-.19,8.77-3.4,8.95-8.8q.31-9.22,0-18.46C40,7.44,37.1,4.24,31.78,4c-6.59-.32-13.23-.26-19.82.07-5.05.25-7.51,3.06-7.79,8.17C4,15.42,4.14,18.62,4.14,21.81Z"/><path class="cls-1" d="M69.76,38.92V9.64c-3.46,2.11-4.28,5.72-3.23,13.77-1-1-2.53-1.91-2.78-3.08-.44-2.1-.79-4.7.08-6.48a20.91,20.91,0,0,1,5.5-6.45c2.23-1.85,4.51-.54,4.53,2.34,0,6.7.07,13.4,0,20.1a13.54,13.54,0,0,1-1,5C72.2,36.21,71,37.31,69.76,38.92Z"/><path class="cls-1" d="M22,33.17A11.25,11.25,0,1,1,33.31,22,11.21,11.21,0,0,1,22,33.17Zm7.51-11.06a7.41,7.41,0,1,0-7.56,7.26A7.48,7.48,0,0,0,29.47,22.11Z"/><path class="cls-1" d="M36.5,10.32a2.41,2.41,0,0,1-2.73,2.42,2.38,2.38,0,0,1-2.45-2.57,2.4,2.4,0,0,1,2.62-2.64C35.55,7.56,36.48,8.53,36.5,10.32Z"/></g></g></svg>