<svg xmlns="http://www.w3.org/2000/svg" viewBox="0 0 489 164.85"><defs><style>.cls-1{fill:#fff;}</style></defs><title>Asset 1</title><g id="Layer_2" data-name="Layer 2"><g id="Layer_1-2" data-name="Layer 1"><path class="cls-1" d="M34.17,126l-.09,38.88L0,164.77.31,28.59c5.49,0,11,.41,16.41-.07,5.16-.46,8.64.88,10.17,6.07a7.26,7.26,0,0,0,1,1.66C46.13,22.75,65.42,21.82,85,32c16.76,8.73,24.65,23.81,26,42.24,1.21,16.47-3,31.39-15,43.4-15.18,15.27-40.23,19.16-59.46,9.44C35.85,126.73,35.15,126.43,34.17,126ZM54.05,101.7c12.83,0,22.31-9.75,22.29-22.83,0-13.3-9.51-23-22.45-23-12.78,0-22.24,9.73-22.3,22.86S41.05,101.74,54.05,101.7Z"/><path class="cls-1" d="M297.7,79.47c-.15,27.61-19.55,49.23-47.08,52.57-13.35,1.62-26.26.25-38.13-6.31-19.35-10.7-28.07-27.67-27.14-49.42,1.26-29.58,23.7-48.13,50.15-50.21a64.12,64.12,0,0,1,30.82,4.68C286,39.2,297.82,57.71,297.7,79.47ZM241,101.58c12.48.31,21.71-8.72,22-21.53.31-13.16-8.32-22.8-20.74-23.15-12.78-.36-22.09,8.52-22.44,21.41C219.48,91.79,228.1,101.27,241,101.58Z"/><path class="cls-1" d="M434.91,133.23c-22.19-.59-39-7.29-50.2-24.49-17.82-27.42-8-73.86,36.69-81.47,17.61-3,34.29-.14,48.4,11.4,17.12,14,22.22,32.69,17.56,53.71-4.6,20.76-18.41,33.37-38.76,38.73C443.43,132.48,438,132.78,434.91,133.23ZM454.2,79.69c0-13.09-8.87-22.33-21.47-22.37s-21.56,9.15-21.67,22.23S420,102.08,432.75,102,454.19,92.86,454.2,79.69Z"/><path class="cls-1" d="M314.1,55.88l-18.19,0c-.55-4.53-.44-8.19,3.13-11.82C311.87,31,324.41,17.59,336.76,4.08c3.13-3.43,6.32-4.82,11.09-3.7l-.07,29,25.07.06-.06,26.49-24-.06c-.08,1.19-.2,2.13-.2,3.08,0,9.21-.07,18.42-.07,27.62,0,9,3.79,12.73,12.82,12.77,3.89,0,7.77,0,11.87,0l-.07,29.91c-.08.07-.23.32-.37.32-10.29-.16-20.68.49-30.86-.7-16.56-1.94-27.36-14.72-27.77-31.76-.3-12.4-.05-24.82,0-37.23C314.09,58.71,314.09,57.52,314.1,55.88Z"/><path class="cls-1" d="M121,28.88c7.4,0,14.58,0,21.77.13.7,0,1.64,1,2,1.7,1.54,2.91,2.91,5.91,4.51,9.23,4.65-5.17,10-9.08,16.7-10.16,6.47-1,13.08-1.2,19.92-1.78l-.07,32c-.95,0-1.91.15-2.87.16-4.2,0-8.41-.06-12.61.09-9.34.36-14.16,5-14.86,14.23-.26,3.49-.24,7-.25,10.5-.06,13.51-.07,27-.1,40.52v3.59L120.76,129Z"/><path class="cls-1" d="M350.62,162.2l-6.76-18c-2.4,6.46-4.53,12.21-6.67,18l-.77.09-6.78-20.79.93-.32,6.26,19.09c2.43-6.56,4.58-12.34,7-18.91,2.46,6.56,4.66,12.46,7.09,18.94,2.18-6.7,4.18-12.82,6.17-18.93l.91.3q-3.31,10.28-6.61,20.56Z"/><path class="cls-1" d="M466.71,156.64c2.51,4.51,5.67,6.05,9.52,4.59,2.08-.78,3.61-2.41,3.14-4.51a6.69,6.69,0,0,0-3.21-3.74c-1.79-1-4-1.17-6-1.79a4.45,4.45,0,0,1-3.51-4.64,5.19,5.19,0,0,1,4-5c4.84-1.48,8.73.72,9.07,5.77-.57-1.07-.85-1.56-1.1-2.07-1.7-3.42-7.06-4.25-9.75-1.51a3.76,3.76,0,0,0,1.31,6.35c1.93.78,4,1.1,6,1.73,3.27,1,4.49,2.71,4.21,5.64a5.33,5.33,0,0,1-5.1,5,14.14,14.14,0,0,1-6.55-1.24c-1.3-.66-1.9-2.71-2.81-4.13Z"/><path class="cls-1" d="M422.41,141.44l10.61,0,0,.58-9.57,0,0,8.92,8.92,0v.7l-8.92,0,0,9.66,10.08,0v.78l-11.16,0Z"/><path class="cls-1" d="M399.92,150.89l8.89,0,0,.71-8.92,0,0,9.68,10.06,0V162l-11.1,0,.05-20.53,10.82,0v.62l-9.81,0Z"/><path class="cls-1" d="M446.75,141.7l-.05,19.68,9.95,0,0,.79-10.68,0,.05-20.49Z"/><path class="cls-1" d="M384.21,162l0-9.95-13.74,0,0,10-.66,0,.05-20.2.54,0,0,8.92,13.66,0,0-9h.71l0,20.33Z"/></g></g></svg>