<svg xmlns="http://www.w3.org/2000/svg" viewBox="0 0 209.56 94.17"><defs><style>.cls-1{fill:#fff;}</style></defs><title>Asset 3</title><g id="Layer_2" data-name="Layer 2"><g id="Layer_1-2" data-name="Layer 1"><path class="cls-1" d="M123.7.16c-3.29.06-7.16.19-8.6.29s-4.46.26-6.72.35c-6.46.26-10.44.86-13.39,2-1.16.45-3.24,1.77-3.24,2.07a7.6,7.6,0,0,1-1,1.16C87.72,9.33,86,16.1,85,28.49c-.11,1.39-.21,8.45-.26,17-.08,15.87-.07,16.37.87,24.52,1.28,11.14,3.08,17.17,5.47,18.3a1.85,1.85,0,0,1,1,.82c1.55,3.56,22.54,5.26,61.45,5,21-.15,32.09-.64,39.41-1.76,3.54-.54,5.16-1.08,6-2a1.25,1.25,0,0,1,.9-.47,5.39,5.39,0,0,0,3.05-1.79c3.39-3.67,5.5-13.17,6.17-27.79.1-2.16.25-5.11.33-6.55.21-3.38.21-10.33,0-14.1-.08-1.62-.23-4.5-.33-6.39-.77-15.17-2.93-24-6.75-27.77a5,5,0,0,1-.95-1.1c0-.21-.64-.79-1.23-1.08C197.41,2,190.05,1,178.76.47,169.09,0,138.74-.16,123.7.16Zm-2.49,15c.16.1.2.95.16,4-.05,3.78-.06,3.88-.42,4.24s-.46.38-4.54.43l-4.18.06v26c0,20,0,26.05-.2,26.2s-6.76.26-7.34,0a1.49,1.49,0,0,1-.6-.77c-.15-.44-.2-6.6-.2-25.36,0-21.68,0-24.86.23-25.39a6.14,6.14,0,0,0,.24-.63s-1.63-.07-3.63-.07a32.09,32.09,0,0,1-4.26-.18c-1-.28-1.12-.59-1.12-4.79a30.22,30.22,0,0,1,.12-3.76C95.61,15,121,15,121.21,15.2Zm35.49,0c.23.1.26,1.1.26,9.68v9.59l1.36-1.28c3.31-3.13,5.72-3.95,8.2-2.8,2.11,1,3.44,3.33,4.16,7.36.26,1.54.3,2.86.3,15.29,0,14.3,0,14.84-.77,17.94-.66,2.74-2,4.82-3.5,5.62a5.35,5.35,0,0,1-2.55.41l-1.9.06-1-.86c-.57-.48-1.77-1.51-2.64-2.31L157,72.39l0,1.93-.05,1.93-3.59,0a14.86,14.86,0,0,1-3.8-.14c-.31-.27-.34-60.6,0-60.91A41.25,41.25,0,0,1,156.7,15.15ZM189.84,30c4.44.86,7.32,4.31,8.34,10,.55,3.25.77,13.73.28,14.62a1.66,1.66,0,0,1-.82.54c-.38.1-3.13.16-7.13.16H184l0,5.36c0,5.21.06,5.41.42,6.19a4.68,4.68,0,0,0,2,2.23,2.58,2.58,0,0,0,3.58-.57c.77-.93.91-1.69,1-4.93l.1-3,3.64,0c3.52,0,3.64,0,3.82.29.26.49-.09,5.92-.5,7.74-1,4.68-3.34,7.27-7.22,8.09a19.26,19.26,0,0,1-6.54-.18c-3.75-1.16-6-4.09-7.05-9.08-.32-1.63-.34-2-.27-15.22,0-12.42.06-13.63.34-14.53,1.23-4.18,4.08-6.67,8.78-7.72A8.43,8.43,0,0,1,189.84,30Zm-60.67.68c.23.23.27,2.09.27,18.14,0,18.56,0,18.35.7,20l.33.79.82-.08a5,5,0,0,0,3.05-1.85c1.63-1.81,1.49.23,1.49-19.63,0-15.75,0-17.44.26-17.54s1.75-.1,3.59-.1c2.82,0,3.37,0,3.59.27s.26,2.5.26,22.66c0,17.68-.05,22.46-.21,22.68s-.56.28-3.81.24l-3.6,0,0-2a8.75,8.75,0,0,0-.2-2.12c-.1-.09-.75.43-1.75,1.4-2.82,2.7-4.41,3.52-6.69,3.37a10.58,10.58,0,0,1-2-.28,4.67,4.67,0,0,1-2.41-2.34l-.39-.85,0-21.37c0-17.09,0-21.4.17-21.51a22.73,22.73,0,0,1,3.27-.14C128.42,30.45,129,30.5,129.17,30.72Z"/><path class="cls-1" d="M158,38.32a3,3,0,0,0-.85.9c-.15.31-.2,4-.2,14.26V67.31l.53.6a7.07,7.07,0,0,0,3.26,1.71c1.28,0,2.38-2.1,3-5.79.22-1.41.22-1.47-.09-1.86s-.32-.68-.32-11c0-7.34-.05-10.79-.18-11.29a3.6,3.6,0,0,0-.73-1.31l-.52-.56h-1.64C158.75,37.83,158.64,37.86,158,38.32Z"/><path class="cls-1" d="M186.18,37.73A6.53,6.53,0,0,0,185,39.27c-.8,1.52-1,2.69-1,5.88V48h7.05V44.63c0-3.69-.13-4.62-.8-5.69a4.41,4.41,0,0,0-2.76-1.7C186.89,37.14,186.77,37.19,186.18,37.73Z"/><path class="cls-1" d="M.15,15.17c.31,1,4.45,15.71,5.39,19.22,1.33,5,2.52,9.81,3.19,13,1.09,5,1.09,5,1.09,17.42,0,10.75,0,11.32.29,11.57s.79.27,3.83.27c3.2,0,3.54,0,3.79-.29S18,75,18,64.31V52.56l1.49-6.1c5-20.63,7.68-31.61,7.68-31.67s-1.72,0-3.8,0l-3.81.05-.77,3.11C17,25.31,15,34.27,14.8,36.47a2.73,2.73,0,0,1-.33,1.21c-.28.23-1.07.13-1.21-.18-.07-.13-.36-1.51-.64-3-.43-2.25-2.69-12.67-4-18.57l-.26-1.18H0Z"/><path class="cls-1" d="M35.54,30.39c-3.59,1-5.93,4-7.13,9.29-.67,3-.8,5-.8,13.55,0,8.77.08,10.34.8,13.82,1.38,6.78,4.76,10.27,9.92,10.27a10.33,10.33,0,0,0,7.14-3.21,8.51,8.51,0,0,0,2-2.87c1.75-3.62,1.85-4.75,1.77-18.17,0-10.08-.08-10.85-.41-12.54-1.12-5.82-3.18-9.09-6.38-10.08a10.84,10.84,0,0,0-3.55-.31A15.48,15.48,0,0,0,35.54,30.39Zm5.07,7.5a7.55,7.55,0,0,1,1.29,3.18c.23,1.1.26,2.64.28,12.16,0,11.21,0,11.8-.67,14.06a4.13,4.13,0,0,1-.79,1.43l-.54.57H38.54c-1.95,0-2.33-.2-2.74-1.44-.55-1.69-.6-2.95-.55-15.27l0-12.21.46-.94c.68-1.41,1.75-2,3.58-1.86A2.05,2.05,0,0,1,40.61,37.89Z"/><path class="cls-1" d="M55.21,31.42a3.73,3.73,0,0,0,.26,1.25c.23.55.23.64,0,.88s-.26,2.05-.26,16.58c0,13.26,0,16.72.24,18.59.41,3.78,1.12,6,2.41,7.39s2.28,1.52,4.23.72A17.42,17.42,0,0,0,67.87,73c.61-.57,1.18-1,1.28-1a10.77,10.77,0,0,1,.15,2.4v2.27h7l0-22.9,0-22.9-3.47-.05-3.49,0,0,17.16,0,17.17-.43.92a7,7,0,0,1-2.43,2.8,2.59,2.59,0,0,1-1.58.46c-1.05,0-1.33-.1-1.59-.56C63,68.47,63,64,62.91,49.63l-.08-18.77L59,30.81l-3.81,0Z"/></g></g></svg>